<svg width="250" height="250" viewBox="0 0 250 250" xmlns="http://www.w3.org/2000/svg">
  <!-- Shield background -->
  <path d="M125 20 C 80 20, 30 50, 30 130 C 30 200, 75 230, 125 230 C 175 230, 220 200, 220 130 C 220 50, 170 20, 125 20 Z" fill="#2980b9" />
  
  <!-- Red middle section -->
  <path d="M70 85 L 180 85 L 180 140 L 70 140 Z" fill="#c0392b" />
  
  <!-- Top arc -->
  <path d="M125 20 C 100 20, 60 40, 60 80 L 190 80 C 190 40, 150 20, 125 20 Z" fill="#2980b9" />
  
  <!-- Text "MEDITERRANEAN" -->
  <path d="M75 45 L 75 45 L 175 45 L 175 70 L 75 70 Z" fill="#2980b9" />
  <text x="125" y="62" font-family="Arial" font-size="14" font-weight="bold" text-anchor="middle" fill="white">MEDITERRANEAN</text>
  
  <!-- Central emblem -->
  <circle cx="125" cy="115" r="25" fill="white" />
  <path d="M110 100 L 140 100 L 140 115 L 130 125 L 120 125 L 110 115 Z" fill="#c0392b" />
  <path d="M115 125 L 135 125 L 135 130 L 115 130 Z" fill="#c0392b" />
  
  <!-- Graduation cap -->
  <rect x="117" y="100" width="16" height="5" fill="#333" />
  <path d="M125 93 L 115 97 L 125 101 L 135 97 Z" fill="#333" />
  <path d="M125 101 L 130 99 L 130 113 L 125 115 Z" fill="#333" />
  
  <!-- Columns -->
  <rect x="80" y="88" width="6" height="20" fill="white" />
  <rect x="74" y="85" width="18" height="3" fill="white" />
  <rect x="74" y="108" width="18" height="3" fill="white" />
  
  <rect x="164" y="88" width="6" height="20" fill="white" />
  <rect x="158" y="85" width="18" height="3" fill="white" />
  <rect x="158" y="108" width="18" height="3" fill="white" />
  
  <!-- Lions -->
  <circle cx="90" cy="165" r="15" fill="#2980b9" />
  <path d="M85 155 L 95 155 L 90 170 Z" fill="white" />
  
  <circle cx="160" cy="165" r="15" fill="#2980b9" />
  <path d="M155 155 L 165 155 L 160 170 Z" fill="white" />
  
  <!-- "MC" -->
  <text x="125" y="190" font-family="Arial" font-size="40" font-weight="bold" text-anchor="middle" fill="white">MC</text>
</svg> 